#!OML:ASF F:\VICON\USERDATA\INSTALL\rory3\rory3.ASF
:FULLY-SPECIFIED
:DEGREES
1075
root 1.08715 17.7009 -18.1962 -184.938 4.22141 542.195
lowerback 19.5103 -2.51068 0.176385
upperback 2.97797 -2.24643 4.18523
thorax -7.52133 -0.756279 4.97739
lowerneck -4.48859 -1.58156 -3.76077
upperneck 28.1062 1.86104 -3.29088
head 9.63883 1.09793 -0.158955
rclavicle 3.95581e-014 -8.5875e-014
rhumerus -47.6088 -15.7821 -56.9068
rradius 108.141
rwrist 15.9277
rhand -12.7078 13.699
rfingers 7.12502
rthumb 13.3749 -15.8517
lclavicle 3.95581e-014 -8.5875e-014
lhumerus -42.1315 3.9188 78.9425
lradius 57.2054
lwrist 10.9112
lhand -12.0088 48.5754
lfingers 7.12502
lthumb 14.0485 78.0806
rfemur -13.3915 5.19479 27.8257
rtibia 34.8564
rfoot -11.4242 -11.0631
rtoes 20.8886
lfemur -13.0572 2.0149 -17.6191
ltibia 67.69
lfoot 5.89138 -3.04965
ltoes -14.8595
1076
root 1.09738 17.7145 -18.3994 -185.096 4.51525 542.036
lowerback 19.3056 -2.42775 -0.0327289
upperback 3.31482 -2.19193 4.00678
thorax -7.04728 -0.731281 4.86239
lowerneck -5.18952 -1.57027 -3.4895
upperneck 28.2694 1.80979 -3.24631
head 9.82878 1.07083 -0.194932
rclavicle -1.61016e-014 -1.98785e-014
rhumerus -45.7946 -15.0722 -59.3055
rradius 104.657
rwrist 18.2276
rhand -14.0544 14.0121
rfingers 7.12502
rthumb 12.0767 -15.6194
lclavicle -1.61016e-014 -1.98785e-014
lhumerus -41.4286 4.12351 78.8563
lradius 57.4498
lwrist 11.0254
lhand -11.9907 48.5619
lfingers 7.12502
lthumb 14.0659 78.0659
rfemur -12.3241 5.13073 27.7271
rtibia 34.7157
rfoot -11.9821 -10.781
rtoes 19.9866
lfemur -14.0051 1.99457 -17.8861
ltibia 67.8371
lfoot 5.37438 -2.01034
ltoes -12.0703
1077
root 1.10021 17.7153 -18.575 -185.026 4.75954 541.712
lowerback 19.4911 -2.19927 -0.293307
upperback 2.96837 -1.99594 3.8974
thorax -7.53396 -0.64171 4.86931
lowerneck -6.44373 -1.79782 -2.31697
upperneck 29.9529 2.02349 -4.46072
head 10.7186 1.18776 -0.792162
rclavicle -3.4191e-014 7.95139e-015
rhumerus -45.2215 -13.8509 -60.7652
rradius 101.312
rwrist 19.8921
rhand -15.1175 13.6604
rfingers 7.12502
rthumb 11.0514 -16.0286
lclavicle -3.4191e-014 7.95139e-015
lhumerus -41.6637 3.84988 79.148
lradius 57.5242
lwrist 11.3409
lhand -12.0362 48.455
lfingers 7.12502
lthumb 14.0222 77.962
rfemur -11.6016 4.9791 27.3656
rtibia 34.4227
rfoot -12.5805 -10.4054
rtoes 21.312
lfemur -15.3512 1.85245 -18.391
ltibia 67.885
lfoot 3.40236 -1.40934
ltoes -12.7685
1078
root 1.10874 17.7088 -18.7445 -184.845 5.09918 541.815
lowerback 19.965 -2.01943 -0.279512
upperback 2.40193 -1.78859 3.9197
thorax -8.42798 -0.542488 4.8819
lowerneck -5.42841 -1.81914 -2.30502
upperneck 29.874 2.07309 -4.52203
head 10.4909 1.26427 -0.806888
rclavicle -1.25234e-014 -3.89618e-014
rhumerus -44.7754 -12.3098 -62.1332
rradius 97.7738
rwrist 21.2547
rhand -16.2394 12.6325
rfingers 7.12502
rthumb 9.96922 -17.1114
lclavicle -1.25234e-014 -3.89618e-014
lhumerus -42.2641 3.56338 79.3439
lradius 57.6733
lwrist 11.6121
lhand -11.9897 48.6307
lfingers 7.12502
lthumb 14.067 78.1346
rfemur -11.1592 5.08751 27.5263
rtibia 34.3611
rfoot -13.0923 -10.2371
rtoes 21.2252
lfemur -16.7376 1.79119 -18.3253
ltibia 67.6784
lfoot 1.94812 -1.13785
ltoes -11.9188
1079
root 1.15142 17.6888 -18.9328 -185.246 6.19605 543.584
lowerback 19.8097 -1.87957 0.780431
upperback 3.38501 -1.20153 4.39498
thorax -7.33559 -0.23854 4.59052
lowerneck -7.08835 -1.66979 -1.85309
upperneck 30.014 2.14169 -4.63165
head 10.8721 1.24013 -0.923958
rclavicle -3.29983e-014 5.64548e-014
rhumerus -42.1302 -12.065 -64.0444
rradius 93.7017
rwrist 22.6701
rhand -17.4553 11.9243
rfingers 7.12502
rthumb 8.79603 -17.8724
lclavicle -3.29983e-014 5.64548e-014
lhumerus -40.705 3.77116 79.4077
lradius 57.7023
lwrist 11.9198
lhand -11.8884 49.0211
lfingers 7.12502
lthumb 14.1645 78.5182
rfemur -9.8164 6.53423 29.9775
rtibia 34.2596
rfoot -13.4708 -11.054
rtoes 19.6741
lfemur -17.21 2.59915 -15.906
ltibia 67.5736
lfoot 0.278087 -1.58407
ltoes -11.5377
1080
root 1.15036 17.6771 -19.1083 -185.019 6.37617 543.198
lowerback 19.9482 -1.67721 0.358007
upperback 2.87779 -1.08603 4.33273
thorax -7.96329 -0.192284 4.76169
lowerneck -6.58146 -1.71307 -1.82247
upperneck 30.5087 2.29996 -4.73864
head 10.9679 1.36403 -0.94412
rclavicle -2.32578e-014 -7.95139e-016
rhumerus -41.3687 -11.0344 -64.9578
rradius 89.5383
rwrist 24.1215
rhand -18.3846 11.5451
rfingers 7.12502
rthumb 7.89918 -18.2873
lclavicle -2.32578e-014 -7.95139e-016
lhumerus -41.4042 3.83889 79.6333
lradius 58.0338
lwrist 11.9543
lhand -12.0926 48.9629
lfingers 7.12502
lthumb 13.9678 78.4736
rfemur -9.45081 6.39622 29.5092
rtibia 34.3084
rfoot -14.1452 -10.705
rtoes 19.9155
lfemur -18.3889 2.24536 -16.5674
ltibia 67.0396
lfoot -1.35302 -1.02635
ltoes -12.9097
1081
root 1.14245 17.6656 -19.2673 -184.593 6.50908 543.404
lowerback 18.8777 -1.64232 0.738944
upperback 3.48077 -0.975547 4.27643
thorax -6.74874 -0.151216 4.39137
lowerneck -7.23982 -1.86018 -1.86628
upperneck 30.1956 1.85796 -4.49574
head 10.9642 1.12121 -0.904724
rclavicle -1.25234e-014 -2.54444e-014
rhumerus -38.656 -11.3011 -66.1387
rradius 84.7933
rwrist 25.6863
rhand -18.5661 12.2366
rfingers 7.12502
rthumb 7.72398 -17.6024
lclavicle -1.25234e-014 -2.54444e-014
lhumerus -39.8241 3.82243 79.8377
lradius 57.8949
lwrist 11.9906
lhand -12.2841 48.7412
lfingers 7.12502
lthumb 13.7832 78.2646
rfemur -9.21653 6.1403 29.6411
rtibia 34.141
rfoot -14.5229 -10.4124
rtoes 18.6436
lfemur -20.0228 1.85504 -16.5103
ltibia 66.694
lfoot -2.86174 -0.408605
ltoes -13.355
1082
root 1.11795 17.6596 -19.4545 -184.085 6.34854 543.327
lowerback 18.273 -1.73869 0.980042
upperback 3.44392 -1.09893 4.24531
thorax -6.46109 -0.22826 4.2289
lowerneck -7.47718 -1.82508 -1.88453
upperneck 30.1512 1.92692 -4.62297
head 10.9981 1.1228 -0.94115
rclavicle 2.52457e-014 8.50798e-014
rhumerus -36.8017 -10.7682 -66.9016
rradius 80.3082
rwrist 27.1618
rhand -18.8077 12.2166
rfingers 7.12502
rthumb 7.49081 -17.6308
lclavicle 2.52457e-014 8.50798e-014
lhumerus -39.4178 4.07383 80.121
lradius 57.8755
lwrist 11.888
lhand -12.1285 49.0124
lfingers 7.12502
lthumb 13.9332 78.5256
rfemur -9.05874 4.8934 29.2069
rtibia 34.1251
rfoot -15.0841 -9.46048
rtoes 16.6095
lfemur -21.4507 1.09382 -16.9472
ltibia 65.9591
lfoot -4.13186 0.457875
ltoes -11.2143
1083
root 1.18302 17.5983 -19.6054 -185.069 8.02912 545.598
lowerback 19.9571 -1.25812 2.01986
upperback 3.5512 0.0237606 5.04851
thorax -7.331 0.370218 4.27523
lowerneck -6.93033 -2.17888 -2.88624
upperneck 30.8 1.50208 -3.63082
head 11.1282 0.98412 -0.446732
rclavicle -2.34566e-014 0
rhumerus -36.032 -10.5551 -67.2153
rradius 75.9722
rwrist 28.1379
rhand -18.6967 12.5741
rfingers 7.12502
rthumb 7.59789 -17.2695
lclavicle -2.34566e-014 0
lhumerus -39.873 3.81853 80.4233
lradius 57.9928
lwrist 11.6523
lhand -11.8044 49.0356
lfingers 7.12502
lthumb 14.2455 78.527
rfemur -7.12419 7.47858 32.6517
rtibia 34.0188
rfoot -15.046 -11.0584
rtoes 18.7404
lfemur -21.4335 2.45932 -13.6347
ltibia 65.5419
lfoot -4.93351 0.0523825
ltoes -8.57307
1084
root 1.17834 17.5924 -19.8093 -184.977 8.12641 545.534
lowerback 19.7417 -1.154 2.18631
upperback 3.21051 0.133335 4.94697
thorax -7.59327 0.395186 4.04503
lowerneck -6.14355 -2.44817 -3.23009
upperneck 30.9555 1.21532 -3.44361
head 11.0313 0.887662 -0.344299
rclavicle -7.95139e-016 -3.89618e-014
rhumerus -35.3378 -10.4041 -67.593
rradius 71.9127
rwrist 29.7602
rhand -18.1251 11.4786
rfingers 7.12502
rthumb 8.14958 -18.3442
lclavicle -7.95139e-016 -3.89618e-014
lhumerus -40.4811 3.4212 80.6292
lradius 58.094
lwrist 11.6648
lhand -11.6624 49.2713
lfingers 7.12502
lthumb 14.3823 78.7531
rfemur -6.40825 7.03906 32.4744
rtibia 34.0076
rfoot -15.5095 -10.8097
rtoes 15.9425
lfemur -22.1396 1.95411 -13.8837
ltibia 64.3489
lfoot -5.89996 0.82391
ltoes -8.72693
1085
root 1.14982 17.593 -19.9958 -184.487 7.72056 544.514
lowerback 18.3885 -1.21488 1.7417
upperback 3.75559 -0.186108 4.48342
thorax -6.25308 0.229724 3.83034
lowerneck -7.68135 -2.49844 -3.23626
upperneck 31.1427 0.976651 -3.16489
head 11.4084 0.726587 -0.279062
rclavicle -2.54444e-014 -4.85035e-014
rhumerus -32.2354 -11.0722 -68.42
rradius 67.1113
rwrist 30.647
rhand -17.2777 10.4916
rfingers 7.12502
rthumb 8.96742 -19.2978
lclavicle -2.54444e-014 -4.85035e-014
lhumerus -39.1068 3.55918 80.6726
lradius 58.0964
lwrist 11.4954
lhand -11.6534 48.9615
lfingers 7.12502
lthumb 14.391 78.4426
rfemur -6.34264 6.05537 30.9585
rtibia 33.9662
rfoot -16.4617 -10.0811
rtoes 15.8289
lfemur -23.4532 0.913835 -15.4256
ltibia 63.084
lfoot -6.82584 2.03445
ltoes -10.0557
